<svg width="4399" height="1841" xmlns="http://www.w3.org/2000/svg" xmlns:xlink="http://www.w3.org/1999/xlink" xml:space="preserve" overflow="hidden"><g transform="matrix(1 0 0 1 0 -156)"><text font-family="Aptos,Aptos_MSFontService,sans-serif" font-weight="400" font-size="110" transform="matrix(1 0 0 1 1594.45 1901)">TMR </text><path d="M1887.92 1847.01 1909.03 1867.47 1909.03 1870.91 1887.92 1891.38 1884.75 1888.42 1897.05 1872.74 1829.22 1872.74 1829.22 1865.59 1897.05 1865.59 1884.75 1849.96Z" fill-rule="evenodd"/><text fill="#000000" fill-opacity="0" font-family="Arial,Arial_MSFontService,sans-serif" font-size="44.3652" x="1829.22" y="1885.83">→</text><text font-family="Aptos,Aptos_MSFontService,sans-serif" font-weight="400" font-size="110" transform="matrix(1 0 0 1 1937.62 1901)">Tool Motion Range</text><path d="M640 207.501C640 191.761 652.76 179 668.501 179L2025.5 179C2041.24 179 2054 191.761 2054 207.501L2054 321.499C2054 337.24 2041.24 350 2025.5 350L668.501 350C652.76 350 640 337.24 640 321.499Z" fill="#0A0A0A" fill-rule="evenodd"/><text fill="#FFFFFF" font-family="Aptos,Aptos_MSFontService,sans-serif" font-weight="400" font-size="101" transform="matrix(1 0 0 1 723.286 297)">Sampling in 2D design space</text><path d="M640 393C640 368.7 659.7 349 684 349L2010 349C2034.3 349 2054 368.7 2054 393L2054 568.999C2054 593.3 2034.3 613 2010 613L684 613C659.7 613 640 593.3 640 568.999Z" fill="#6D6E71" fill-rule="evenodd"/><text fill="#FFFFFF" font-family="Aptos,Aptos_MSFontService,sans-serif" font-weight="400" font-size="101" transform="matrix(1 0 0 1 826.549 453)">100% of 785 candidates</text><text fill="#FFFFFF" font-family="Aptos,Aptos_MSFontService,sans-serif" font-weight="400" font-size="101" transform="matrix(1 0 0 1 771.366 574)">successfully wielded tools</text><path d="M2550 400.168C2550 375.775 2569.77 356 2594.17 356L3919.83 356C3944.23 356 3964 375.775 3964 400.168L3964 576.833C3964 601.226 3944.23 621 3919.83 621L2594.17 621C2569.77 621 2550 601.226 2550 576.833Z" fill="#6D6E71" fill-rule="evenodd"/><text fill="#FFFFFF" font-family="Aptos,Aptos_MSFontService,sans-serif" font-weight="400" font-size="101" transform="matrix(1 0 0 1 2627.58 460)">99.42% of 10,000 candidates</text><text fill="#FFFFFF" font-family="Aptos,Aptos_MSFontService,sans-serif" font-weight="400" font-size="101" transform="matrix(1 0 0 1 2681.83 581)">successfully wielded tools</text><path d="M2550 215.501C2550 199.76 2562.76 187 2578.5 187L3935.5 187C3951.24 187 3964 199.76 3964 215.501L3964 329.499C3964 345.239 3951.24 358 3935.5 358L2578.5 358C2562.76 358 2550 345.239 2550 329.499Z" fill="#0A0A0A" fill-rule="evenodd"/><text fill="#FFFFFF" font-family="Aptos,Aptos_MSFontService,sans-serif" font-weight="400" font-size="101" transform="matrix(1 0 0 1 2633.76 305)">Sampling in 6D design space</text><rect x="2167" y="156" width="33" height="1626"/></g></svg>